<?xml version="1.0" standalone="no"?>
<!DOCTYPE svg PUBLIC "-//W3C//DTD SVG 20010904//EN"
 "http://www.w3.org/TR/2001/REC-SVG-20010904/DTD/svg10.dtd">
<svg version="1.0" xmlns="http://www.w3.org/2000/svg"
 width="300.000000pt" height="300.000000pt" viewBox="0 0 300.000000 300.000000"
 preserveAspectRatio="xMidYMid meet">
<metadata>
Created by potrace 1.11, written by Peter Selinger 2001-2013
</metadata>
<g transform="translate(0.000000,300.000000) scale(0.100000,-0.100000)"
fill="#000000" stroke="none">
<path d="M430 2938 c8 -75 5 -270 -4 -316 -11 -57 -33 -134 -81 -277 -50 -153
-85 -287 -109 -410 -17 -90 -15 -250 4 -305 50 -148 150 -254 296 -312 56 -23
59 -26 54 -54 -7 -40 -5 -182 2 -219 4 -16 7 -36 7 -43 1 -7 24 4 59 28 55 38
123 60 191 60 38 0 71 -59 124 -220 25 -74 59 -171 77 -215 51 -126 58 -163
59 -322 2 -173 11 -199 84 -249 91 -63 147 -78 292 -78 115 0 136 3 183 23 62
28 119 88 156 167 24 50 70 192 80 248 2 11 16 66 31 121 20 76 36 112 65 150
56 73 84 171 110 390 7 55 14 105 15 111 4 13 211 -42 457 -123 14 -4 17 0 13
26 -11 92 -57 185 -122 248 -53 52 -53 53 -26 54 45 1 60 5 126 37 98 48 152
107 180 202 61 201 39 564 -44 757 -11 26 -22 55 -24 63 -2 8 -8 35 -13 58
-21 91 1 287 43 388 22 52 19 56 -22 33 -167 -93 -226 -208 -224 -434 1 -76 4
-109 15 -200 3 -22 10 -78 15 -125 15 -121 14 -205 -6 -274 -23 -83 -92 -152
-205 -206 -139 -66 -195 -60 -370 43 -188 110 -311 149 -456 143 -145 -6 -263
-58 -432 -192 -113 -89 -147 -106 -220 -107 -90 -1 -179 61 -217 151 -22 52
-21 202 1 319 3 11 7 43 11 70 4 26 9 59 12 73 3 14 7 88 9 165 5 185 -17 286
-93 440 -27 55 -101 175 -108 175 0 0 2 -28 5 -62z"/>
</g>
</svg>
